<svg width="35" height="32" viewBox="0 0 35 32" fill="none" xmlns="http://www.w3.org/2000/svg">
<path d="M19.7812 15H17.5938V7H18.6875C19.8478 7 20.9606 7.42143 21.7811 8.17157C22.6016 8.92172 23.0625 9.93913 23.0625 11C23.0625 11.2652 23.1777 11.5196 23.3829 11.7071C23.588 11.8946 23.8662 12 24.1562 12C24.4463 12 24.7245 11.8946 24.9296 11.7071C25.1348 11.5196 25.25 11.2652 25.25 11C25.2482 9.40921 24.5562 7.88405 23.3259 6.75919C22.0956 5.63433 20.4274 5.00165 18.6875 5H17.5938V3C17.5938 2.73478 17.4785 2.48043 17.2734 2.29289C17.0683 2.10536 16.7901 2 16.5 2C16.2099 2 15.9317 2.10536 15.7266 2.29289C15.5215 2.48043 15.4062 2.73478 15.4062 3V5H14.3125C12.572 5 10.9028 5.63214 9.67211 6.75736C8.4414 7.88258 7.75 9.4087 7.75 11C7.75 12.5913 8.4414 14.1174 9.67211 15.2426C10.9028 16.3679 12.572 17 14.3125 17H15.4062V25H13.2188C12.0584 25 10.9456 24.5786 10.1252 23.8284C9.30469 23.0783 8.84375 22.0609 8.84375 21C8.84375 20.7348 8.72852 20.4804 8.5234 20.2929C8.31828 20.1054 8.04008 20 7.75 20C7.45992 20 7.18172 20.1054 6.9766 20.2929C6.77148 20.4804 6.65625 20.7348 6.65625 21C6.65806 22.5908 7.35005 24.116 8.58036 25.2408C9.81068 26.3657 11.4788 26.9983 13.2188 27H15.4062V29C15.4062 29.2652 15.5215 29.5196 15.7266 29.7071C15.9317 29.8946 16.2099 30 16.5 30C16.7901 30 17.0683 29.8946 17.2734 29.7071C17.4785 29.5196 17.5938 29.2652 17.5938 29V27H19.7812C21.5217 27 23.1909 26.3679 24.4216 25.2426C25.6523 24.1174 26.3438 22.5913 26.3438 21C26.3438 19.4087 25.6523 17.8826 24.4216 16.7574C23.1909 15.6321 21.5217 15 19.7812 15ZM14.3125 15C13.1522 15 12.0394 14.5786 11.2189 13.8284C10.3984 13.0783 9.9375 12.0609 9.9375 11C9.9375 9.93913 10.3984 8.92172 11.2189 8.17157C12.0394 7.42143 13.1522 7 14.3125 7H15.4062V15H14.3125ZM19.7812 25H17.5938V17H19.7812C20.9416 17 22.0544 17.4214 22.8748 18.1716C23.6953 18.9217 24.1562 19.9391 24.1562 21C24.1562 22.0609 23.6953 23.0783 22.8748 23.8284C22.0544 24.5786 20.9416 25 19.7812 25Z" fill="black"/>
</svg>
