<svg width="35" height="35" viewBox="0 0 35 35" fill="none" xmlns="http://www.w3.org/2000/svg">
<path d="M17.1875 5C14.777 5 12.4207 5.71478 10.4165 7.05396C8.41227 8.39314 6.85017 10.2966 5.92772 12.5235C5.00528 14.7505 4.76393 17.201 5.23418 19.5652C5.70444 21.9293 6.86519 24.1009 8.56964 25.8054C10.2741 27.5098 12.4457 28.6706 14.8098 29.1408C17.174 29.6111 19.6245 29.3697 21.8515 28.4473C24.0784 27.5248 25.9819 25.9627 27.321 23.9585C28.6602 21.9543 29.375 19.598 29.375 17.1875C29.3716 13.9562 28.0865 10.8583 25.8016 8.5734C23.5167 6.28854 20.4188 5.00341 17.1875 5ZM10.8688 25.332C11.547 24.2713 12.4813 23.3985 13.5855 22.7938C14.6898 22.1892 15.9285 21.8723 17.1875 21.8723C18.4465 21.8723 19.6852 22.1892 20.7895 22.7938C21.8937 23.3985 22.8281 24.2713 23.5063 25.332C21.6996 26.7371 19.4762 27.4999 17.1875 27.4999C14.8988 27.4999 12.6754 26.7371 10.8688 25.332ZM13.4375 16.25C13.4375 15.5083 13.6574 14.7833 14.0695 14.1666C14.4816 13.5499 15.0672 13.0693 15.7524 12.7855C16.4377 12.5016 17.1917 12.4274 17.9191 12.5721C18.6465 12.7167 19.3147 13.0739 19.8392 13.5983C20.3636 14.1228 20.7208 14.791 20.8655 15.5184C21.0101 16.2458 20.9359 16.9998 20.6521 17.6851C20.3682 18.3703 19.8876 18.956 19.2709 19.368C18.6542 19.7801 17.9292 20 17.1875 20C16.1929 20 15.2391 19.6049 14.5359 18.9016C13.8326 18.1984 13.4375 17.2446 13.4375 16.25ZM24.8938 24.0324C23.8482 22.5173 22.378 21.3451 20.668 20.6633C21.5865 19.9398 22.2568 18.9481 22.5855 17.826C22.9143 16.704 22.8853 15.5074 22.5024 14.4026C22.1196 13.2978 21.402 12.3398 20.4495 11.6617C19.4969 10.9837 18.3567 10.6193 17.1875 10.6193C16.0183 10.6193 14.8781 10.9837 13.9255 11.6617C12.973 12.3398 12.2554 13.2978 11.8726 14.4026C11.4897 15.5074 11.4607 16.704 11.7895 17.826C12.1182 18.9481 12.7885 19.9398 13.707 20.6633C11.9971 21.3451 10.5268 22.5173 9.48126 24.0324C8.16005 22.5467 7.2965 20.7107 6.99459 18.7455C6.69268 16.7803 6.96529 14.7698 7.7796 12.956C8.5939 11.1422 9.91517 9.6024 11.5843 8.52211C13.2534 7.44183 15.1993 6.86709 17.1875 6.86709C19.1757 6.86709 21.1216 7.44183 22.7907 8.52211C24.4598 9.6024 25.7811 11.1422 26.5954 12.956C27.4097 14.7698 27.6823 16.7803 27.3804 18.7455C27.0785 20.7107 26.215 22.5467 24.8938 24.0324Z" fill="#ACF67C"/>
</svg>
