<svg width="35" height="32" viewBox="0 0 35 32" fill="none" xmlns="http://www.w3.org/2000/svg">
<path d="M15.3686 12.8162C15.3231 12.6917 15.305 12.5601 15.3152 12.4291C15.3253 12.2981 15.3636 12.1702 15.4279 12.0527C15.4921 11.9353 15.581 11.8305 15.6896 11.7445C15.7981 11.6584 15.9241 11.5928 16.0604 11.5513L17.701 11.0513C17.8654 11.0011 18.0405 10.9875 18.2118 11.0114C18.3832 11.0353 18.5458 11.096 18.6864 11.1887C18.827 11.2814 18.9415 11.4032 19.0205 11.5443C19.0995 11.6853 19.1406 11.8415 19.1406 12V17C19.1406 17.2652 19.0254 17.5196 18.8203 17.7071C18.6152 17.8946 18.337 18 18.0469 18C17.7568 18 17.4786 17.8946 17.2735 17.7071C17.0684 17.5196 16.9531 17.2652 16.9531 17V13.3875L16.7521 13.4487C16.6159 13.4903 16.472 13.5069 16.3287 13.4976C16.1854 13.4883 16.0455 13.4532 15.9171 13.3945C15.7886 13.3358 15.674 13.2545 15.5799 13.1553C15.4858 13.056 15.414 12.9408 15.3686 12.8162ZM33.9062 26C33.9062 26.2652 33.791 26.5196 33.5859 26.7071C33.3808 26.8946 33.1026 27 32.8125 27H2.1875C1.89742 27 1.61922 26.8946 1.4141 26.7071C1.20898 26.5196 1.09375 26.2652 1.09375 26C1.09375 25.7348 1.20898 25.4804 1.4141 25.2929C1.61922 25.1054 1.89742 25 2.1875 25H3.28125V13C3.28125 12.4696 3.51172 11.9609 3.92195 11.5858C4.33219 11.2107 4.88859 11 5.46875 11H10.9375V7C10.9375 6.46957 11.168 5.96086 11.5782 5.58579C11.9884 5.21071 12.5448 5 13.125 5H21.875C22.4552 5 23.0116 5.21071 23.4218 5.58579C23.832 5.96086 24.0625 6.46957 24.0625 7V16H29.5312C30.1114 16 30.6678 16.2107 31.078 16.5858C31.4883 16.9609 31.7188 17.4696 31.7188 18V25H32.8125C33.1026 25 33.3808 25.1054 33.5859 25.2929C33.791 25.4804 33.9062 25.7348 33.9062 26ZM24.0625 18V25H29.5312V18H24.0625ZM13.125 25H21.875V7H13.125V25ZM5.46875 25H10.9375V13H5.46875V25Z" fill="#ACF67C"/>
</svg>
