<svg width="32" height="32" viewBox="0 0 32 32" fill="none" xmlns="http://www.w3.org/2000/svg">
<path d="M18.5 22.5C18.5 22.7967 18.412 23.0867 18.2472 23.3334C18.0824 23.58 17.8481 23.7723 17.574 23.8858C17.2999 23.9993 16.9983 24.0291 16.7074 23.9712C16.4164 23.9133 16.1491 23.7704 15.9393 23.5607C15.7296 23.3509 15.5867 23.0836 15.5288 22.7926C15.471 22.5017 15.5007 22.2001 15.6142 21.926C15.7277 21.6519 15.92 21.4176 16.1667 21.2528C16.4133 21.088 16.7033 21 17 21C17.3978 21 17.7794 21.158 18.0607 21.4393C18.342 21.7206 18.5 22.1022 18.5 22.5ZM17 9C14.2425 9 12 11.0188 12 13.5V14C12 14.2652 12.1054 14.5196 12.2929 14.7071C12.4804 14.8946 12.7348 15 13 15C13.2652 15 13.5196 14.8946 13.7071 14.7071C13.8946 14.5196 14 14.2652 14 14V13.5C14 12.125 15.3463 11 17 11C18.6538 11 20 12.125 20 13.5C20 14.875 18.6538 16 17 16C16.7348 16 16.4804 16.1054 16.2929 16.2929C16.1054 16.4804 16 16.7348 16 17V18C16 18.2652 16.1054 18.5196 16.2929 18.7071C16.4804 18.8946 16.7348 19 17 19C17.2652 19 17.5196 18.8946 17.7071 18.7071C17.8946 18.5196 18 18.2652 18 18V17.91C20.28 17.4913 22 15.6725 22 13.5C22 11.0188 19.7575 9 17 9ZM30 16C30 18.5712 29.2376 21.0846 27.8091 23.2224C26.3807 25.3603 24.3503 27.0265 21.9749 28.0104C19.5995 28.9944 16.9856 29.2518 14.4638 28.7502C11.9421 28.2486 9.6257 27.0105 7.80762 25.1924C5.98953 23.3743 4.75141 21.0579 4.2498 18.5362C3.74819 16.0144 4.00563 13.4006 4.98957 11.0251C5.97351 8.64968 7.63975 6.61935 9.77759 5.1909C11.9154 3.76244 14.4288 3 17 3C20.4467 3.00364 23.7512 4.37445 26.1884 6.81163C28.6256 9.24882 29.9964 12.5533 30 16ZM28 16C28 13.8244 27.3549 11.6977 26.1462 9.88873C24.9375 8.07979 23.2195 6.66989 21.2095 5.83733C19.1995 5.00476 16.9878 4.78692 14.854 5.21136C12.7202 5.6358 10.7602 6.68345 9.22183 8.22183C7.68345 9.7602 6.63581 11.7202 6.21137 13.854C5.78693 15.9878 6.00477 18.1995 6.83733 20.2095C7.66989 22.2195 9.07979 23.9375 10.8887 25.1462C12.6977 26.3549 14.8244 27 17 27C19.9164 26.9967 22.7123 25.8367 24.7745 23.7745C26.8367 21.7123 27.9967 18.9164 28 16Z" fill="white"/>
</svg>
