<svg width="24" height="24" viewBox="0 0 24 24" xmlns="http://www.w3.org/2000/svg">
  <path d="M12 2C6.48 2 2 6.48 2 12C2 17.52 6.48 22 12 22C17.52 22 22 17.52 22 12C22 6.48 17.52 2 12 2ZM13.41 16.09V18H10.74V16.07C9.03 15.71 7.58 14.61 7.47 12.67H9.43C9.53 13.72 10.25 14.43 12.08 14.43C13.87 14.43 14.36 13.6 14.36 12.97C14.36 12.14 13.79 11.54 11.85 11.09C9.67 10.57 7.96 9.67 7.96 7.67C7.96 5.94 9.34 4.84 10.74 4.47V2.54H13.41V4.47C15.01 4.91 15.97 6.21 16.04 7.77H14.08C14.02 6.76 13.45 6.07 12.08 6.07C10.75 6.07 9.92 6.67 9.92 7.67C9.92 8.47 10.6 9 12.36 9.42C14.16 9.85 16.32 10.65 16.32 12.97C16.32 14.77 14.96 15.74 13.41 16.09Z" fill="currentColor"/>
</svg>
