<svg width="35" height="32" viewBox="0 0 35 32" fill="none" xmlns="http://www.w3.org/2000/svg">
<path d="M21.125 15H18.9375V7H20.0312C21.1916 7 22.3044 7.42143 23.1248 8.17157C23.9453 8.92172 24.4062 9.93913 24.4062 11C24.4062 11.2652 24.5215 11.5196 24.7266 11.7071C24.9317 11.8946 25.2099 12 25.5 12C25.7901 12 26.0683 11.8946 26.2734 11.7071C26.4785 11.5196 26.5938 11.2652 26.5938 11C26.5919 9.40921 25.9 7.88405 24.6696 6.75919C23.4393 5.63433 21.7712 5.00165 20.0312 5H18.9375V3C18.9375 2.73478 18.8223 2.48043 18.6171 2.29289C18.412 2.10536 18.1338 2 17.8438 2C17.5537 2 17.2755 2.10536 17.0704 2.29289C16.8652 2.48043 16.75 2.73478 16.75 3V5H15.6562C13.9158 5 12.2466 5.63214 11.0159 6.75736C9.78515 7.88258 9.09375 9.4087 9.09375 11C9.09375 12.5913 9.78515 14.1174 11.0159 15.2426C12.2466 16.3679 13.9158 17 15.6562 17H16.75V25H14.5625C13.4022 25 12.2894 24.5786 11.4689 23.8284C10.6484 23.0783 10.1875 22.0609 10.1875 21C10.1875 20.7348 10.0723 20.4804 9.86715 20.2929C9.66203 20.1054 9.38383 20 9.09375 20C8.80367 20 8.52547 20.1054 8.32035 20.2929C8.11523 20.4804 8 20.7348 8 21C8.00181 22.5908 8.6938 24.116 9.92411 25.2408C11.1544 26.3657 12.8226 26.9983 14.5625 27H16.75V29C16.75 29.2652 16.8652 29.5196 17.0704 29.7071C17.2755 29.8946 17.5537 30 17.8438 30C18.1338 30 18.412 29.8946 18.6171 29.7071C18.8223 29.5196 18.9375 29.2652 18.9375 29V27H21.125C22.8655 27 24.5347 26.3679 25.7654 25.2426C26.9961 24.1174 27.6875 22.5913 27.6875 21C27.6875 19.4087 26.9961 17.8826 25.7654 16.7574C24.5347 15.6321 22.8655 15 21.125 15ZM15.6562 15C14.4959 15 13.3831 14.5786 12.5627 13.8284C11.7422 13.0783 11.2812 12.0609 11.2812 11C11.2812 9.93913 11.7422 8.92172 12.5627 8.17157C13.3831 7.42143 14.4959 7 15.6562 7H16.75V15H15.6562ZM21.125 25H18.9375V17H21.125C22.2853 17 23.3981 17.4214 24.2186 18.1716C25.0391 18.9217 25.5 19.9391 25.5 21C25.5 22.0609 25.0391 23.0783 24.2186 23.8284C23.3981 24.5786 22.2853 25 21.125 25Z" fill="black"/>
</svg>
