<svg width="33" height="34" viewBox="0 0 33 34" fill="none" xmlns="http://www.w3.org/2000/svg">
<g clip-path="url(#clip0_1_46)">
<path d="M16.5 0.75C13.2861 0.75 10.1443 1.70305 7.47199 3.48862C4.79969 5.27419 2.71689 7.81209 1.48696 10.7814C0.257041 13.7507 -0.0647633 17.018 0.562247 20.1702C1.18926 23.3224 2.73692 26.2179 5.00952 28.4905C7.28213 30.7631 10.1776 32.3107 13.3298 32.9378C16.482 33.5648 19.7493 33.243 22.7186 32.013C25.6879 30.7831 28.2258 28.7003 30.0114 26.028C31.797 23.3557 32.75 20.2139 32.75 17C32.7455 12.6916 31.0319 8.56102 27.9855 5.51454C24.939 2.46806 20.8084 0.75455 16.5 0.75ZM8.07501 27.8594C8.97928 26.4451 10.225 25.2813 11.6974 24.4751C13.1698 23.6689 14.8214 23.2463 16.5 23.2463C18.1786 23.2463 19.8303 23.6689 21.3026 24.4751C22.775 25.2813 24.0207 26.4451 24.925 27.8594C22.5162 29.7328 19.5516 30.7499 16.5 30.7499C13.4484 30.7499 10.4839 29.7328 8.07501 27.8594ZM11.5 15.75C11.5 14.7611 11.7933 13.7944 12.3427 12.9721C12.8921 12.1499 13.673 11.509 14.5866 11.1306C15.5002 10.7522 16.5056 10.6531 17.4755 10.8461C18.4454 11.039 19.3363 11.5152 20.0355 12.2145C20.7348 12.9137 21.211 13.8046 21.4039 14.7745C21.5969 15.7445 21.4978 16.7498 21.1194 17.6634C20.741 18.577 20.1001 19.3579 19.2779 19.9073C18.4556 20.4568 17.4889 20.75 16.5 20.75C15.1739 20.75 13.9022 20.2232 12.9645 19.2855C12.0268 18.3479 11.5 17.0761 11.5 15.75ZM26.775 26.1266C25.3809 24.1064 23.4206 22.5435 21.1406 21.6344C22.3653 20.6698 23.259 19.3475 23.6974 17.8514C24.1358 16.3553 24.097 14.7598 23.5866 13.2868C23.0761 11.8137 22.1194 10.5364 20.8493 9.63233C19.5792 8.72827 18.059 8.24247 16.5 8.24247C14.941 8.24247 13.4208 8.72827 12.1507 9.63233C10.8807 10.5364 9.92387 11.8137 9.41342 13.2868C8.90298 14.7598 8.86425 16.3553 9.30262 17.8514C9.74099 19.3475 10.6347 20.6698 11.8594 21.6344C9.57941 22.5435 7.61912 24.1064 6.22501 26.1266C4.46339 24.1456 3.31199 21.6976 2.90945 19.0773C2.50691 16.4571 2.87039 13.7764 3.95613 11.358C5.04186 8.93954 6.80356 6.88653 9.02908 5.44615C11.2546 4.00577 13.849 3.23945 16.5 3.23945C19.151 3.23945 21.7454 4.00577 23.9709 5.44615C26.1965 6.88653 27.9582 8.93954 29.0439 11.358C30.1296 13.7764 30.4931 16.4571 30.0906 19.0773C29.688 21.6976 28.5366 24.1456 26.775 26.1266Z" fill="white"/>
</g>
<defs>
<clipPath id="clip0_1_46">
<rect width="33" height="34" fill="white"/>
</clipPath>
</defs>
</svg>
