<svg width="25" height="25" viewBox="0 0 25 25" fill="none" xmlns="http://www.w3.org/2000/svg">
<path d="M22.1982 7.16505L17.835 2.80079C17.6899 2.65566 17.5176 2.54054 17.328 2.46199C17.1384 2.38344 16.9352 2.34302 16.73 2.34302C16.5248 2.34302 16.3216 2.38344 16.132 2.46199C15.9424 2.54054 15.7701 2.65566 15.625 2.80079L3.58302 14.8438C3.43729 14.9883 3.32176 15.1604 3.24313 15.35C3.1645 15.5396 3.12435 15.743 3.12501 15.9482V20.3125C3.12501 20.7269 3.28963 21.1243 3.58265 21.4174C3.87568 21.7104 4.27311 21.875 4.68751 21.875H9.05177C9.25703 21.8757 9.46038 21.8355 9.64999 21.7569C9.8396 21.6783 10.0117 21.5627 10.1563 21.417L22.1982 9.37501C22.3434 9.22991 22.4585 9.05765 22.537 8.86805C22.6156 8.67846 22.656 8.47525 22.656 8.27003C22.656 8.06481 22.6156 7.8616 22.537 7.672C22.4585 7.48241 22.3434 7.31014 22.1982 7.16505ZM9.05177 20.3125H4.68751V15.9482L13.2813 7.3545L17.6455 11.7188L9.05177 20.3125ZM18.75 10.6133L14.3857 6.25001L16.7295 3.90626L21.0938 8.26954L18.75 10.6133Z" fill="black"/>
</svg>
